<svg width="23" height="23" viewBox="0 0 23 23" fill="none" xmlns="http://www.w3.org/2000/svg">
<path fill-rule="evenodd" clip-rule="evenodd" d="M11.4999 22.0418C5.67792 22.0418 0.958252 17.3222 0.958252 11.5002C0.958252 5.67816 5.67792 0.958496 11.4999 0.958496C17.3219 0.958496 22.0416 5.67816 22.0416 11.5002C22.0416 17.3222 17.3219 22.0418 11.4999 22.0418ZM18.5911 16.4113C19.5582 15.0176 20.1249 13.325 20.1249 11.5002C20.1249 6.73671 16.2634 2.87516 11.4999 2.87516C6.73646 2.87516 2.87492 6.73671 2.87492 11.5002C2.87492 13.325 3.44166 15.0176 4.40874 16.4113C5.48729 14.9866 8.02175 14.3752 11.4999 14.3752C14.9781 14.3752 17.5125 14.9866 18.5911 16.4113ZM17.2161 17.9591C16.9356 16.9505 14.9206 16.2918 11.4999 16.2918C8.07926 16.2918 6.06426 16.9505 5.78377 17.9591C7.30558 19.3069 9.30719 20.1252 11.4999 20.1252C13.6926 20.1252 15.6943 19.3069 17.2161 17.9591ZM11.4999 14.3752C9.35408 14.3752 7.66659 12.8681 7.66659 9.5835C7.66659 7.43277 9.17989 5.75016 11.4999 5.75016C13.8135 5.75016 15.3333 7.59167 15.3333 9.77516C15.3333 12.9181 13.6256 14.3752 11.4999 14.3752ZM9.58325 9.5835C9.58325 11.7582 10.3674 12.4585 11.4999 12.4585C12.6286 12.4585 13.4166 11.7861 13.4166 9.77516C13.4166 8.57765 12.6649 7.66683 11.4999 7.66683C10.2864 7.66683 9.58325 8.44866 9.58325 9.5835Z" fill="#929AA2"/>
</svg>
